<svg xmlns="http://www.w3.org/2000/svg" xmlns:xlink="http://www.w3.org/1999/xlink" viewBox="0 0 57.46 59.36"><defs><style>.cls-1{isolation:isolate;}.cls-2{fill:url(#radial-gradient);}.cls-3,.cls-6{opacity:0.35;mix-blend-mode:screen;}.cls-3{fill:url(#linear-gradient);}.cls-4{fill:#fff;opacity:0.4;}.cls-5{opacity:0.5;mix-blend-mode:multiply;fill:url(#radial-gradient-2);}.cls-6{fill:url(#linear-gradient-2);}.cls-7{fill:#603913;}</style><radialGradient id="radial-gradient" cx="26.28" cy="23.79" r="26.24" gradientUnits="userSpaceOnUse"><stop offset="0" stop-color="#ffc875"/><stop offset="0.12" stop-color="#fec166"/><stop offset="0.33" stop-color="#fbb040"/><stop offset="0.68" stop-color="#f7941e"/><stop offset="1" stop-color="#eb8204"/></radialGradient><linearGradient id="linear-gradient" x1="-1411.43" y1="1506.03" x2="-1438.61" y2="1478.84" gradientTransform="matrix(1, -0.05, 0.05, 1.02, 1371.33, -1579.03)" gradientUnits="userSpaceOnUse"><stop offset="0"/><stop offset="0.19" stop-color="#2b2b2b"/><stop offset="0.6" stop-color="#969696"/><stop offset="0.99" stop-color="#fff"/></linearGradient><radialGradient id="radial-gradient-2" cx="-2155.36" cy="107760.08" r="7.48" gradientTransform="translate(7014.33 -42416.39) scale(3.24 0.39)" gradientUnits="userSpaceOnUse"><stop offset="0" stop-color="#8b5e3c"/><stop offset="0.05" stop-color="#976f50"/><stop offset="0.17" stop-color="#b2957e"/><stop offset="0.29" stop-color="#cab5a6"/><stop offset="0.42" stop-color="#ddd0c6"/><stop offset="0.55" stop-color="#ece5df"/><stop offset="0.69" stop-color="#f7f3f1"/><stop offset="0.83" stop-color="#fdfcfc"/><stop offset="1" stop-color="#fff"/></radialGradient><linearGradient id="linear-gradient-2" x1="90.01" y1="-1330.25" x2="71.06" y2="-1349.2" gradientTransform="matrix(0.05, 1, -1.02, 0.05, -1353.78, 10.86)" xlink:href="#linear-gradient"/></defs><g class="cls-1"><g id="Capa_2" data-name="Capa 2"><g id="Capa_1-2" data-name="Capa 1"><circle class="cls-2" cx="28.73" cy="26.1" r="26.1"/><ellipse class="cls-3" cx="24.4" cy="20.84" rx="21.67" ry="16.2" transform="translate(-7.68 20.18) rotate(-39.32)"/><path class="cls-4" d="M26.7,50.7a27.6,27.6,0,0,1-12.16-5.81,30.62,30.62,0,0,1-6.93-8.36s1.77,7,7.71,10.66A29.43,29.43,0,0,0,26.7,50.7Z"/><ellipse class="cls-5" cx="28.73" cy="56.06" rx="28.73" ry="3.3"/><ellipse class="cls-6" cx="22.56" cy="23.03" rx="11.29" ry="15.1" transform="translate(-9.42 27.12) rotate(-52.88)"/><path class="cls-7" d="M40.17,38a.7.7,0,0,1-.5-.21,15.49,15.49,0,0,0-21.88,0,.71.71,0,0,1-1,0,.73.73,0,0,1,0-1,16.94,16.94,0,0,1,23.9,0A.72.72,0,0,1,40.17,38Z"/><circle class="cls-7" cx="20.36" cy="17.98" r="2.75" transform="translate(-1.8 33.69) rotate(-76.78)"/><circle class="cls-7" cx="37.11" cy="17.98" r="2.75" transform="translate(12.65 51.18) rotate(-79.48)"/></g></g></g></svg>