<?xml version="1.0" standalone="no"?>
<!DOCTYPE svg PUBLIC "-//W3C//DTD SVG 20010904//EN"
 "http://www.w3.org/TR/2001/REC-SVG-20010904/DTD/svg10.dtd">
<svg version="1.0" xmlns="http://www.w3.org/2000/svg"
 width="512.000000pt" height="512.000000pt" viewBox="0 0 512.000000 512.000000"
 preserveAspectRatio="xMidYMid meet">
<metadata>
Created by potrace 1.16, written by Peter Selinger 2001-2019
</metadata>
<g transform="translate(0.000000,512.000000) scale(0.100000,-0.100000)"
fill="#000000" stroke="none">
<path d="M2305 5113 c-671 -72 -1279 -393 -1707 -903 -301 -358 -488 -764
-571 -1240 -19 -109 -21 -162 -21 -410 0 -248 2 -301 21 -410 94 -540 320
-987 693 -1374 383 -398 866 -650 1430 -749 109 -19 162 -21 410 -21 313 0
407 10 653 73 882 228 1600 946 1828 1828 63 246 73 340 73 653 0 313 -10 407
-73 653 -228 881 -946 1600 -1828 1828 -227 58 -334 71 -613 74 -140 2 -273 1
-295 -2z m476 -283 c720 -71 1368 -483 1739 -1106 150 -253 250 -538 301 -859
20 -124 17 -495 -4 -635 -101 -653 -469 -1227 -1017 -1583 -267 -173 -587
-294 -910 -344 -159 -24 -501 -24 -660 0 -692 106 -1286 509 -1641 1112 -279
475 -374 1050 -264 1598 179 886 877 1591 1760 1778 218 46 478 60 696 39z"/>
<path d="M1632 3391 c-112 -39 -182 -139 -182 -261 0 -202 202 -332 388 -250
106 46 169 155 160 274 -7 78 -34 132 -94 185 -78 68 -172 86 -272 52z"/>
<path d="M3349 3395 c-69 -22 -143 -93 -168 -161 -71 -190 57 -377 259 -378
242 -1 362 301 189 473 -69 68 -187 96 -280 66z"/>
<path d="M1332 1944 l-114 -75 28 -37 c266 -359 594 -573 1018 -664 145 -31
434 -31 586 0 229 47 459 145 631 268 110 78 268 230 342 329 33 44 64 85 69
92 7 9 -24 34 -108 88 -111 72 -119 76 -131 58 -145 -200 -293 -330 -490 -431
-210 -107 -374 -147 -603 -146 -198 0 -325 24 -495 94 -216 88 -433 258 -562
438 -25 34 -48 62 -51 61 -4 0 -58 -34 -120 -75z"/>
</g>
</svg>
