<svg xmlns="http://www.w3.org/2000/svg" xmlns:xlink="http://www.w3.org/1999/xlink" viewBox="0 0 57.46 59.36"><defs><style>.cls-1{isolation:isolate;}.cls-2{fill:url(#radial-gradient);}.cls-3,.cls-6{opacity:0.35;mix-blend-mode:screen;}.cls-3{fill:url(#linear-gradient);}.cls-4{fill:#fff;opacity:0.4;}.cls-5{opacity:0.5;mix-blend-mode:multiply;fill:url(#radial-gradient-2);}.cls-6{fill:url(#linear-gradient-2);}.cls-7{fill:#603913;}</style><radialGradient id="radial-gradient" cx="26.28" cy="23.79" r="26.24" gradientUnits="userSpaceOnUse"><stop offset="0" stop-color="#eff2a9"/><stop offset="0.1" stop-color="#eef29a"/><stop offset="0.3" stop-color="#ecf272"/><stop offset="0.33" stop-color="#ecf26a"/><stop offset="0.68" stop-color="#d7df23"/><stop offset="1" stop-color="#c9d121"/></radialGradient><linearGradient id="linear-gradient" x1="-1457.18" y1="1621.71" x2="-1484.37" y2="1594.52" gradientTransform="matrix(1, -0.05, 0.05, 1.02, 1411.12, -1699.81)" gradientUnits="userSpaceOnUse"><stop offset="0"/><stop offset="0.19" stop-color="#2b2b2b"/><stop offset="0.6" stop-color="#969696"/><stop offset="0.99" stop-color="#fff"/></linearGradient><radialGradient id="radial-gradient-2" cx="-2277.55" cy="107760.08" r="7.48" gradientTransform="translate(7410.36 -42416.39) scale(3.24 0.39)" gradientUnits="userSpaceOnUse"><stop offset="0" stop-color="#8b5e3c"/><stop offset="0.05" stop-color="#976f50"/><stop offset="0.17" stop-color="#b2957e"/><stop offset="0.29" stop-color="#cab5a6"/><stop offset="0.42" stop-color="#ddd0c6"/><stop offset="0.55" stop-color="#ece5df"/><stop offset="0.69" stop-color="#f7f3f1"/><stop offset="0.83" stop-color="#fdfcfc"/><stop offset="1" stop-color="#fff"/></radialGradient><linearGradient id="linear-gradient-2" x1="59.32" y1="-1427.27" x2="40.37" y2="-1446.21" gradientTransform="matrix(0.05, 1, -1.02, 0.05, -1451.64, 46.45)" xlink:href="#linear-gradient"/></defs><g class="cls-1"><g id="Capa_2" data-name="Capa 2"><g id="Capa_1-2" data-name="Capa 1"><circle class="cls-2" cx="28.73" cy="26.1" r="26.1"/><ellipse class="cls-3" cx="24.4" cy="20.84" rx="21.67" ry="16.2" transform="translate(-7.68 20.18) rotate(-39.32)"/><path class="cls-4" d="M26.7,50.7a27.6,27.6,0,0,1-12.16-5.81,30.62,30.62,0,0,1-6.93-8.36s1.77,7,7.71,10.66A29.43,29.43,0,0,0,26.7,50.7Z"/><ellipse class="cls-5" cx="28.73" cy="56.06" rx="28.73" ry="3.3"/><ellipse class="cls-6" cx="22.56" cy="23.03" rx="11.29" ry="15.1" transform="translate(-9.42 27.12) rotate(-52.88)"/><path class="cls-7" d="M28.73,41.93A13.18,13.18,0,0,1,15.57,28.77a.62.62,0,0,1,1.23,0,11.94,11.94,0,1,0,23.87,0,.61.61,0,1,1,1.22,0A13.17,13.17,0,0,1,28.73,41.93Z"/><circle class="cls-7" cx="20.53" cy="18.03" r="2.75" transform="translate(-1.71 33.89) rotate(-76.78)"/><circle class="cls-7" cx="37.28" cy="18.03" r="2.75" transform="translate(11.21 50.2) rotate(-76.78)"/></g></g></g></svg>