<svg xmlns="http://www.w3.org/2000/svg" xmlns:xlink="http://www.w3.org/1999/xlink" viewBox="0 0 57.46 59.36"><defs><style>.cls-1{isolation:isolate;}.cls-2{fill:url(#radial-gradient);}.cls-3,.cls-6{opacity:0.25;mix-blend-mode:screen;}.cls-3{fill:url(#linear-gradient);}.cls-4{fill:#fff;opacity:0.3;}.cls-5{opacity:0.5;mix-blend-mode:multiply;fill:url(#radial-gradient-2);}.cls-6{fill:url(#linear-gradient-2);}.cls-7{fill:#231f20;}</style><radialGradient id="radial-gradient" cx="26.28" cy="23.79" r="26.24" gradientUnits="userSpaceOnUse"><stop offset="0" stop-color="#f19778"/><stop offset="0.08" stop-color="#f18b69"/><stop offset="0.25" stop-color="#f16d41"/><stop offset="0.33" stop-color="#f15a29"/><stop offset="0.68" stop-color="#ed1c24"/><stop offset="1" stop-color="#b51d2b"/></radialGradient><linearGradient id="linear-gradient" x1="-1388.67" y1="1448.48" x2="-1415.86" y2="1421.3" gradientTransform="matrix(1, -0.05, 0.05, 1.02, 1351.54, -1518.95)" gradientUnits="userSpaceOnUse"><stop offset="0"/><stop offset="0.19" stop-color="#2b2b2b"/><stop offset="0.6" stop-color="#969696"/><stop offset="0.99" stop-color="#fff"/></linearGradient><radialGradient id="radial-gradient-2" cx="-2094.57" cy="107760.08" r="7.48" gradientTransform="translate(6817.33 -42416.39) scale(3.24 0.39)" gradientUnits="userSpaceOnUse"><stop offset="0" stop-color="#8b5e3c"/><stop offset="0.05" stop-color="#976f50"/><stop offset="0.17" stop-color="#b2957e"/><stop offset="0.29" stop-color="#cab5a6"/><stop offset="0.42" stop-color="#ddd0c6"/><stop offset="0.55" stop-color="#ece5df"/><stop offset="0.69" stop-color="#f7f3f1"/><stop offset="0.83" stop-color="#fdfcfc"/><stop offset="1" stop-color="#fff"/></radialGradient><linearGradient id="linear-gradient-2" x1="105.27" y1="-1281.99" x2="86.32" y2="-1300.94" gradientTransform="matrix(0.05, 1, -1.02, 0.05, -1305.11, -6.85)" xlink:href="#linear-gradient"/></defs><g class="cls-1"><g id="Capa_2" data-name="Capa 2"><g id="Capa_1-2" data-name="Capa 1"><circle class="cls-2" cx="28.73" cy="26.1" r="26.1"/><ellipse class="cls-3" cx="24.4" cy="20.84" rx="21.67" ry="16.2" transform="translate(-7.68 20.18) rotate(-39.32)"/><path class="cls-4" d="M26.7,50.7a27.6,27.6,0,0,1-12.16-5.81,30.62,30.62,0,0,1-6.93-8.36s1.77,7,7.71,10.66A29.43,29.43,0,0,0,26.7,50.7Z"/><ellipse class="cls-5" cx="28.73" cy="56.06" rx="28.73" ry="3.3"/><ellipse class="cls-6" cx="22.56" cy="23.03" rx="11.29" ry="15.1" transform="translate(-9.42 27.12) rotate(-52.88)"/><path class="cls-7" d="M25.32,15.1a.57.57,0,0,1-.22,0l-7.33-2.39a.71.71,0,1,1,.44-1.36l7.33,2.4a.71.71,0,0,1,.46.9A.72.72,0,0,1,25.32,15.1Z"/><path class="cls-7" d="M31.87,15.06a.71.71,0,0,1-.22-1.39L39,11.28a.71.71,0,1,1,.44,1.35L32.09,15A.57.57,0,0,1,31.87,15.06Z"/><path class="cls-7" d="M16.18,39.41l-.21,0a.72.72,0,0,1-.47-.9A13.61,13.61,0,0,1,28.39,29h.16a13.57,13.57,0,0,1,12.73,9.47.71.71,0,0,1-1.36.43,12.07,12.07,0,0,0-11.39-8.47,12.2,12.2,0,0,0-11.67,8.48A.7.7,0,0,1,16.18,39.41Z"/><circle class="cls-7" cx="21.9" cy="19.18" r="3" transform="translate(-0.32 37.98) rotate(-81.43)"/><circle class="cls-7" cx="35.33" cy="19.18" r="3"/></g></g></g></svg>